2014051_C4_04_grf
version=1
nRows=37
nColumns=19
inDegrees=no
endheader
time	ground_force_1_vx	ground_force_1_vy	ground_force_1_vz	ground_force_1_px	ground_force_1_py	ground_force_1_pz	ground_force_1_mx	ground_force_1_my	ground_force_1_mz	ground_force_2_vx	ground_force_2_vy	ground_force_2_vz	ground_force_2_px	ground_force_2_py	ground_force_2_pz	ground_force_2_mx	ground_force_2_my	ground_force_2_mz
      0.99500000	    -14.40856373	    684.49937180	     14.74764571	     -0.24182747	      0.00000000	      0.22950710	      0.00000000	      0.57297262	      0.00000000	      0.00000000	      0.00000000	      0.00000000	      0.00000000	      0.00000000	      0.00000000	      0.00000000	      0.00000000	      0.00000000
      0.99600000	    -14.33132030	    683.95297229	     14.71170634	     -0.24116255	      0.00000000	      0.22940134	      0.00000000	      0.57883665	      0.00000000	      0.00000000	      0.00000000	      0.00000000	      0.00000000	      0.00000000	      0.00000000	      0.00000000	      0.00000000	      0.00000000
      0.99700000	    -14.25823243	    683.41076374	     14.67831507	     -0.24049394	      0.00000000	      0.22929431	     -0.00000000	      0.58494007	     -0.00000000	      0.00000000	      0.00000000	      0.00000000	      0.00000000	      0.00000000	      0.00000000	      0.00000000	      0.00000000	      0.00000000
      0.99800000	    -14.18834459	    682.87197500	     14.64696974	     -0.23982252	      0.00000000	      0.22918627	     -0.00000000	      0.59121935	     -0.00000000	      0.00000000	      0.00000000	      0.00000000	      0.00000000	      0.00000000	      0.00000000	      0.00000000	      0.00000000	      0.00000000
      0.99900000	    -14.12230264	    682.33761191	     14.61818665	     -0.23914780	      0.00000000	      0.22907700	     -0.00000000	      0.59769883	     -0.00000000	      0.00000000	      0.00000000	      0.00000000	      0.00000000	      0.00000000	      0.00000000	      0.00000000	      0.00000000	      0.00000000
      1.00000000	    -14.05921578	    681.80693686	     14.59145844	     -0.23847061	      0.00000000	      0.22896678	      0.00000000	      0.60432246	      0.00000000	      0.00000000	      0.00000000	      0.00000000	      0.00000000	      0.00000000	      0.00000000	      0.00000000	      0.00000000	      0.00000000
      1.00100000	    -13.99965771	    681.28098920	     14.56730589	     -0.23779056	      0.00000000	      0.22885540	      0.00000000	      0.61110510	      0.00000000	      0.00000000	      0.00000000	      0.00000000	      0.00000000	      0.00000000	      0.00000000	      0.00000000	      0.00000000	      0.00000000
      1.00200000	    -13.94278370	    680.75879663	     14.54522759	     -0.23710840	      0.00000000	      0.22874312	      0.00000000	      0.61799721	      0.00000000	      0.00000000	      0.00000000	      0.00000000	      0.00000000	      0.00000000	      0.00000000	      0.00000000	      0.00000000	      0.00000000
      1.00300000	    -13.88907852	    680.24136499	     14.52576295	     -0.23642384	      0.00000000	      0.22862977	      0.00000000	      0.62500240	      0.00000000	      0.00000000	      0.00000000	      0.00000000	      0.00000000	      0.00000000	      0.00000000	      0.00000000	      0.00000000	      0.00000000
      1.00400000	    -13.83775473	    679.72768843	     14.50840682	     -0.23573755	      0.00000000	      0.22851559	     -0.00000000	      0.63207687	      0.00000000	      0.00000000	      0.00000000	      0.00000000	      0.00000000	      0.00000000	      0.00000000	      0.00000000	      0.00000000	      0.00000000
      1.00500000	    -13.78920441	    679.21863869	     14.49370235	     -0.23504932	      0.00000000	      0.22840043	      0.00000000	      0.63920869	      0.00000000	      0.00000000	      0.00000000	      0.00000000	      0.00000000	      0.00000000	      0.00000000	      0.00000000	      0.00000000	      0.00000000
      1.00600000	    -13.74270674	    678.71327698	     14.48112279	     -0.23435972	      0.00000000	      0.22828449	      0.00000000	      0.64636193	      0.00000000	      0.00000000	      0.00000000	      0.00000000	      0.00000000	      0.00000000	      0.00000000	      0.00000000	      0.00000000	      0.00000000
      1.00700000	    -13.69856484	    678.21237445	     14.47118744	     -0.23366861	      0.00000000	      0.22816765	     -0.00000000	      0.65351139	      0.00000000	      0.00000000	      0.00000000	      0.00000000	      0.00000000	      0.00000000	      0.00000000	      0.00000000	      0.00000000	      0.00000000
      1.00800000	    -13.65614124	    677.71502584	     14.46335465	     -0.23297647	      0.00000000	      0.22805010	      0.00000000	      0.66063315	      0.00000000	      0.00000000	      0.00000000	      0.00000000	      0.00000000	      0.00000000	      0.00000000	      0.00000000	      0.00000000	      0.00000000
      1.00900000	    -13.61565758	    677.22203583	     14.45812434	     -0.23228324	      0.00000000	      0.22793170	      0.00000000	      0.66768806	      0.00000000	      0.00000000	      0.00000000	      0.00000000	      0.00000000	      0.00000000	      0.00000000	      0.00000000	      0.00000000	      0.00000000
      1.01000000	    -13.57655693	    676.73246562	     14.45495188	     -0.23158930	      0.00000000	      0.22781265	     -0.00000000	      0.67466359	      0.00000000	      0.00000000	      0.00000000	      0.00000000	      0.00000000	      0.00000000	      0.00000000	      0.00000000	      0.00000000	      0.00000000
      1.01100000	    -13.53896968	    676.24728754	     14.45431784	     -0.23089467	      0.00000000	      0.22769282	     -0.00000000	      0.68150886	      0.00000000	      0.00000000	      0.00000000	      0.00000000	      0.00000000	      0.00000000	      0.00000000	      0.00000000	      0.00000000	      0.00000000
      1.01200000	    -13.50241806	    675.76559633	     14.45568800	     -0.23019965	      0.00000000	      0.22757240	      0.00000000	      0.68822641	      0.00000000	      0.00000000	      0.00000000	      0.00000000	      0.00000000	      0.00000000	      0.00000000	      0.00000000	      0.00000000	      0.00000000
      1.01300000	    -13.46694306	    675.28809607	     14.45952952	     -0.22950434	      0.00000000	      0.22745131	      0.00000000	      0.69475706	      0.00000000	      0.00000000	      0.00000000	      0.00000000	      0.00000000	      0.00000000	      0.00000000	      0.00000000	      0.00000000	      0.00000000
      1.01400000	    -13.43215350	    674.81408268	     14.46531713	     -0.22880896	      0.00000000	      0.22732975	      0.00000000	      0.70111768	      0.00000000	      0.00000000	      0.00000000	      0.00000000	      0.00000000	      0.00000000	      0.00000000	      0.00000000	      0.00000000	      0.00000000
      1.01500000	    -13.39800702	    674.34426025	     14.47349414	     -0.22811371	      0.00000000	      0.22720766	     -0.00000000	      0.70724228	     -0.00000000	      0.00000000	      0.00000000	      0.00000000	      0.00000000	      0.00000000	      0.00000000	      0.00000000	      0.00000000	      0.00000000
      1.01600000	    -13.36420886	    673.87785763	     14.48354870	     -0.22741872	      0.00000000	      0.22708522	      0.00000000	      0.71316066	      0.00000000	      0.00000000	      0.00000000	      0.00000000	      0.00000000	      0.00000000	      0.00000000	      0.00000000	      0.00000000	      0.00000000
      1.01700000	    -13.33064679	    673.41557890	     14.49590698	     -0.22672425	      0.00000000	      0.22696239	      0.00000000	      0.71880172	      0.00000000	      0.00000000	      0.00000000	      0.00000000	      0.00000000	      0.00000000	      0.00000000	      0.00000000	      0.00000000	      0.00000000
      1.01800000	    -13.29711918	    672.95658588	     14.51006830	     -0.22603035	      0.00000000	      0.22683931	      0.00000000	      0.72420695	      0.00000000	      0.00000000	      0.00000000	      0.00000000	      0.00000000	      0.00000000	      0.00000000	      0.00000000	      0.00000000	      0.00000000
      1.01900000	    -13.26345466	    672.50168324	     14.52642605	     -0.22533735	      0.00000000	      0.22671596	      0.00000000	      0.72930229	      0.00000000	      0.00000000	      0.00000000	      0.00000000	      0.00000000	      0.00000000	      0.00000000	      0.00000000	      0.00000000	      0.00000000
      1.02000000	    -13.22954707	    672.04993218	     14.54448253	     -0.22464521	      0.00000000	      0.22659242	      0.00000000	      0.73413906	      0.00000000	      0.00000000	      0.00000000	      0.00000000	      0.00000000	      0.00000000	      0.00000000	      0.00000000	      0.00000000	      0.00000000
      1.02100000	    -13.19517707	    671.60223797	     14.56457675	     -0.22395432	      0.00000000	      0.22646870	      0.00000000	      0.73863978	      0.00000000	      0.00000000	      0.00000000	      0.00000000	      0.00000000	      0.00000000	      0.00000000	      0.00000000	      0.00000000	      0.00000000
      1.02200000	    -13.16031534	    671.15769535	     14.58622962	     -0.22326454	      0.00000000	      0.22634487	      0.00000000	      0.74286125	      0.00000000	      0.00000000	      0.00000000	      0.00000000	      0.00000000	      0.00000000	      0.00000000	      0.00000000	      0.00000000	      0.00000000
      1.02300000	    -13.12468573	    670.71714252	     14.60973173	     -0.22257632	      0.00000000	      0.22622098	      0.00000000	      0.74671942	      0.00000000	      0.00000000	      0.00000000	      0.00000000	      0.00000000	      0.00000000	      0.00000000	      0.00000000	      0.00000000	      0.00000000
      1.02400000	    -13.08831573	    670.27980834	     14.63463157	     -0.22188947	      0.00000000	      0.22609707	      0.00000000	      0.75027538	      0.00000000	      0.00000000	      0.00000000	      0.00000000	      0.00000000	      0.00000000	      0.00000000	      0.00000000	      0.00000000	      0.00000000
      1.02500000	    -13.05086631	    669.84643042	     14.66116533	     -0.22120449	      0.00000000	      0.22597320	     -0.00000000	      0.75343941	      0.00000000	      0.00000000	      0.00000000	      0.00000000	      0.00000000	      0.00000000	      0.00000000	      0.00000000	      0.00000000	      0.00000000
      1.02600000	    -13.01243249	    669.41627115	     14.68891352	     -0.22052114	      0.00000000	      0.22584942	      0.00000000	      0.75627902	      0.00000000	      0.00000000	      0.00000000	      0.00000000	      0.00000000	      0.00000000	      0.00000000	      0.00000000	      0.00000000	      0.00000000
      1.02700000	    -12.97262358	    668.99016872	     14.71805647	     -0.21983996	      0.00000000	      0.22572581	      0.00000000	      0.75870030	      0.00000000	      0.00000000	      0.00000000	      0.00000000	      0.00000000	      0.00000000	      0.00000000	      0.00000000	      0.00000000	      0.00000000
      1.02800000	    -12.93160394	    668.56728494	     14.74821419	     -0.21916062	      0.00000000	      0.22560237	      0.00000000	      0.76077746	      0.00000000	      0.00000000	      0.00000000	      0.00000000	      0.00000000	      0.00000000	      0.00000000	      0.00000000	      0.00000000	      0.00000000
      1.02900000	    -12.88893260	    668.14859211	     14.77950886	     -0.21848372	      0.00000000	      0.22547919	      0.00000000	      0.76241410	      0.00000000	      0.00000000	      0.00000000	      0.00000000	      0.00000000	      0.00000000	      0.00000000	      0.00000000	      0.00000000	      0.00000000
      1.03000000	    -12.84483261	    667.73331910	     14.81160969	     -0.21780886	      0.00000000	      0.22535626	      0.00000000	      0.76369166	      0.00000000	      0.00000000	      0.00000000	      0.00000000	      0.00000000	      0.00000000	      0.00000000	      0.00000000	      0.00000000	      0.00000000
      1.03100000	    -12.79881783	    667.32243821	     14.84458745	     -0.21713668	      0.00000000	      0.22523370	      0.00000000	      0.76451331	      0.00000000	      0.00000000	      0.00000000	      0.00000000	      0.00000000	      0.00000000	      0.00000000	      0.00000000	      0.00000000	      0.00000000
